<?xml version="1.0" encoding="utf-8"?>
<!-- Generator: Adobe Illustrator 19.0.0, SVG Export Plug-In . SVG Version: 6.00 Build 0)  -->
<svg version="1.1" id="Layer_1" xmlns="http://www.w3.org/2000/svg" xmlns:xlink="http://www.w3.org/1999/xlink" x="0px" y="0px"
	 viewBox="0 0 561.5 370.5" style="enable-background:new 0 0 561.5 370.5;" xml:space="preserve">
<style type="text/css">
	.st0{fill:#7F8C8D;}
	.st1{fill:#EF9B21;}
	.st2{fill:#BDC3C7;}
	.st3{fill:#0D0D0D;}
	.st4{fill:#313333;}
	.st5{fill:#6D7675;}
	.st6{fill:#E0E2E2;}
	.st7{fill:#ED1C24;}
	.st8{fill:#E83E4A;}
	.st9{fill:#F05560;}
	.st10{fill:#0C0E18;}
	.st11{fill:#725B25;}
	.st12{fill:#D7A429;}
	.st13{fill:#F0C419;}
	.st14{fill:#2B3990;}
	.st15{fill:#4E60AC;}
	.st16{fill:#00AEEF;}
	.st17{fill:#443023;}
	.st18{fill:#DAE0E0;}
	.st19{fill:#CA6A28;}
</style>
<g id="XMLID_3_">
	<rect id="XMLID_19_" x="740.7" y="278.1" class="st0" width="14.4" height="14.4"/>
	<rect id="XMLID_18_" x="833.6" y="278.1" class="st0" width="14.4" height="14.4"/>
	<rect id="XMLID_17_" x="786" y="232.2" class="st0" width="14.4" height="14.4"/>
	<g id="XMLID_14_">
		<path id="XMLID_16_" class="st0" d="M768.5,493h-41.1c-6.7,0-12.2-5.5-12.2-12.2v-33.3h65.5v33.3C780.7,487.6,775.3,493,768.5,493
			z"/>
		<path id="XMLID_15_" class="st1" d="M806.3,379c0,0-45-36.9-51.9-93.7h-3.5v75c6.7,1.4,11.8,7.3,11.8,14.4
			c0,8.1-6.6,14.7-14.7,14.7c-8.1,0-14.7-6.6-14.7-14.7c0-6.8,4.7-12.6,11-14.2v-75.2h-3.5c-6.9,56.8-51.9,93.7-51.9,93.7
			c28.4,34.5,26,62.1,26,62.1h32.8h32.8C780.4,441.1,777.9,413.5,806.3,379z"/>
	</g>
	<rect id="XMLID_13_" x="715.3" y="447.6" class="st2" width="65.5" height="19"/>
	<rect id="XMLID_12_" x="711.3" y="283.5" class="st0" width="72.7" height="3.6"/>
	<polygon id="XMLID_11_" class="st0" points="791.6,285.3 782.1,289.4 782.1,281.1 	"/>
	<polygon id="XMLID_9_" class="st0" points="703.8,285.3 713.4,281.1 713.4,289.4 	"/>
	<g id="XMLID_4_">
		<g id="XMLID_7_">
			<path id="XMLID_28_" class="st0" d="M794.2,236.8c26.8,0,48.5,21.7,48.5,48.5h-3.8c0-24.7-20-44.7-44.7-44.7
				c-24.7,0-44.7,20-44.7,44.7h-3.8C745.7,258.5,767.4,236.8,794.2,236.8z"/>
		</g>
		<line id="XMLID_6_" class="st0" x1="749.5" y1="285.3" x2="745.7" y2="285.3"/>
		<line id="XMLID_5_" class="st0" x1="842.7" y1="285.3" x2="838.9" y2="285.3"/>
	</g>
</g>
<g id="XMLID_10_">
	<g id="XMLID_1_">
		
			<rect id="XMLID_1093_" x="160.6" y="190.5" transform="matrix(-0.7071 0.7071 -0.7071 -0.7071 426.1573 218.8306)" class="st0" width="14.4" height="14.4"/>
		
			<rect id="XMLID_1092_" x="226.3" y="256.2" transform="matrix(-0.7071 0.7071 -0.7071 -0.7071 584.8442 284.5609)" class="st0" width="14.4" height="14.4"/>
		
			<rect id="XMLID_1091_" x="225" y="190.1" transform="matrix(-0.7071 0.7071 -0.7071 -0.7071 535.961 172.6461)" class="st0" width="14.4" height="14.4"/>
		<g id="XMLID_1076_">
			<path id="XMLID_1090_" class="st0" d="M35.5,359.2L6.4,330.2c-4.8-4.8-4.8-12.5,0-17.2l23.5-23.5l46.3,46.3l-23.5,23.5
				C47.9,364,40.2,364,35.5,359.2z"/>
			<path id="XMLID_1077_" class="st1" d="M142.8,305.3c0,0-5.7-58,29.6-103l-2.4-2.4l-53,53c3.8,5.7,3.2,13.5-1.9,18.6
				c-5.8,5.8-15.1,5.8-20.8,0c-5.8-5.8-5.8-15.1,0-20.8c4.8-4.8,12.2-5.6,17.8-2.3l53.2-53.2l-2.4-2.4c-45.1,35.3-103,29.6-103,29.6
				c-4.3,44.5-25.5,62.3-25.5,62.3l23.2,23.2l23.2,23.2C80.5,330.8,98.3,309.6,142.8,305.3z"/>
		</g>
		
			<rect id="XMLID_1075_" x="36.8" y="286.5" transform="matrix(-0.7071 0.7071 -0.7071 -0.7071 304.8491 512.2863)" class="st2" width="19" height="65.5"/>
		
			<rect id="XMLID_1074_" x="165.7" y="161.1" transform="matrix(-0.7071 0.7071 -0.7071 -0.7071 425.6561 218.623)" class="st0" width="3.6" height="72.7"/>
		<polygon id="XMLID_1071_" class="st0" points="198.7,228.6 189,224.8 194.9,218.9 		"/>
		<polygon id="XMLID_1069_" class="st0" points="136.6,166.5 146.3,170.3 140.4,176.2 		"/>
		<g id="XMLID_1052_">
			<g id="XMLID_1065_">
				<path id="XMLID_27_" class="st0" d="M234.8,196.1c19,19,19,49.7,0,68.6l-2.7-2.7c17.5-17.5,17.5-45.8,0-63.3
					c-17.5-17.5-45.8-17.5-63.3,0l-2.7-2.7C185.2,177.2,215.9,177.2,234.8,196.1z"/>
			</g>
			<line id="XMLID_1057_" class="st0" x1="168.9" y1="198.8" x2="166.2" y2="196.1"/>
			<line id="XMLID_1056_" class="st0" x1="234.8" y1="264.7" x2="232.2" y2="262.1"/>
		</g>
	</g>
	<g id="XMLID_2_">
		<g id="XMLID_1114_">
			<path id="XMLID_1148_" class="st3" d="M547.6,367.3h-246V223.4h246c6,0,10.9,4.9,10.9,10.9v122
				C558.5,362.4,553.6,367.3,547.6,367.3z"/>
			<rect id="XMLID_1147_" x="301.7" y="232.6" class="st0" width="245.4" height="125.5"/>
			<path id="XMLID_1144_" class="st2" d="M344.5,247.2v96.3h188.2v-96.3H344.5z M531.1,341.4H346v-92h185.1V341.4z"/>
			<path id="XMLID_1142_" class="st3" d="M301.7,230.1v2.9h24.9v56h-24.9v2.9h27.9v-61.8H301.7z"/>
			<path id="XMLID_1140_" class="st3" d="M301.7,299.1v2.9h24.9v56h-25v2.9h28v-61.8H301.7z"/>
			<rect id="XMLID_1139_" x="301.6" y="233.1" class="st3" width="0.1" height="56"/>
			<rect id="XMLID_1115_" x="301.6" y="302.1" class="st3" width="0.1" height="56"/>
		</g>
		<circle id="XMLID_1160_" class="st0" cx="547" cy="199.2" r="8.2"/>
		<path id="XMLID_1159_" class="st3" d="M543.9,209.5H327.4v-20.7h216.5c1.7,0,3.1,1.4,3.1,3.1v14.6
			C547,208.1,545.6,209.5,543.9,209.5z"/>
		<rect id="XMLID_1158_" x="341.6" y="188.8" class="st4" width="191.3" height="20.7"/>
		<path id="XMLID_1157_" class="st5" d="M327.4,188.8l-20.9,8.2c-2,0.8-2,3.6,0,4.4l20.9,8.2V188.8z"/>
	</g>
	<g id="XMLID_609_">
		<g id="XMLID_610_">
			
				<rect id="XMLID_611_" x="441.4" y="36.2" transform="matrix(0.7071 0.7071 -0.7071 0.7071 207.9984 -296.3834)" class="st6" width="40.7" height="133.5"/>
			<g id="XMLID_612_">
				
					<rect id="XMLID_613_" x="424.7" y="110.9" transform="matrix(0.7071 0.7071 -0.7071 0.7071 216.3588 -276.1997)" class="st7" width="33.7" height="24.3"/>
				
					<rect id="XMLID_614_" x="450" y="85.7" transform="matrix(0.7071 0.7071 -0.7071 0.7071 205.9023 -301.444)" class="st8" width="33.7" height="24.3"/>
				
					<rect id="XMLID_615_" x="475.1" y="60.5" transform="matrix(0.7071 0.7071 -0.7071 0.7071 195.4828 -326.5988)" class="st9" width="33.7" height="24.3"/>
			</g>
			<circle id="XMLID_616_" class="st10" cx="412.7" cy="134.4" r="5.4"/>
		</g>
		<g id="XMLID_617_">
			
				<rect id="XMLID_618_" x="423.4" y="18" transform="matrix(0.9403 0.3404 -0.3404 0.9403 55.3569 -145.9777)" class="st6" width="40.7" height="133.5"/>
			<g id="XMLID_619_">
				
					<rect id="XMLID_620_" x="417.1" y="99.5" transform="matrix(0.9403 0.3404 -0.3404 0.9403 63.9129 -141.0671)" class="st11" width="33.7" height="24.3"/>
				
					<rect id="XMLID_621_" x="429.3" y="65.9" transform="matrix(0.9403 0.3404 -0.3404 0.9403 53.2117 -147.2089)" class="st12" width="33.7" height="24.3"/>
				
					<rect id="XMLID_622_" x="441.4" y="32.5" transform="matrix(0.9403 0.3404 -0.3404 0.9403 42.5483 -153.3289)" class="st13" width="33.7" height="24.3"/>
			</g>
			<circle id="XMLID_623_" class="st10" cx="412.7" cy="134.1" r="5.4"/>
		</g>
		<g id="XMLID_624_">
			<rect id="XMLID_625_" x="404.7" y="10" class="st6" width="40.7" height="133.5"/>
			<g id="XMLID_626_">
				<rect id="XMLID_627_" x="408.2" y="93.1" class="st14" width="33.7" height="24.3"/>
				<rect id="XMLID_628_" x="408.2" y="57.4" class="st15" width="33.7" height="24.3"/>
				<rect id="XMLID_629_" x="408.2" y="21.8" class="st16" width="33.7" height="24.3"/>
			</g>
			<circle id="XMLID_630_" class="st10" cx="412.6" cy="133.7" r="5.4"/>
		</g>
	</g>
	<g id="XMLID_8_">
		<path id="XMLID_1166_" class="st17" d="M347.5,20.2l-86.3,86.3c-1.8-7.2-5.1-12-5.1-12s-1.6-2.9-4.3-6.1l81.9-81.9
			c3.8-3.8,10-3.8,13.8,0v0C351.3,10.2,351.3,16.4,347.5,20.2z"/>
		<path id="XMLID_1181_" class="st18" d="M198.6,151.9l-14.8,0.9c-0.5,0-1.1,0-1.6,0c-5.9-0.2-34.4-2-36.5-2.7
			c-7.6-2.7-25.5-9.3-35-15.8c-12.3-8.4-14.4-26-14.4-26s38-5.4,56.4,7.8s45.9,17.3,56.4,16.2c4.1-0.5,5,2.3,4.6,5.9
			C212.7,145.7,206.2,151.4,198.6,151.9z"/>
		<path id="XMLID_1165_" class="st19" d="M250.7,99c0,0,14.9,22.2-1.4,42.3s-88.2,3.6-88.2,3.6s60.9-8.5,52.9-30.5
			c-8-22,14.3-30.7,22.2-28.5C244.9,88.3,250.7,99,250.7,99z"/>
	</g>
</g>
</svg>
