<?xml version="1.0" encoding="utf-8"?>
<!-- Generator: Adobe Illustrator 19.0.0, SVG Export Plug-In . SVG Version: 6.00 Build 0)  -->
<svg version="1.1" id="Layer_1" xmlns="http://www.w3.org/2000/svg" xmlns:xlink="http://www.w3.org/1999/xlink" x="0px" y="0px"
	 viewBox="0 0 781.3 570" style="enable-background:new 0 0 781.3 570;" xml:space="preserve">
<style type="text/css">
	.st0{fill-rule:evenodd;clip-rule:evenodd;fill:#F9A22F;}
	.st1{fill-rule:evenodd;clip-rule:evenodd;fill:#F78E1E;}
	.st2{fill-rule:evenodd;clip-rule:evenodd;fill:#3B97D3;}
	.st3{fill-rule:evenodd;clip-rule:evenodd;fill:#1F407D;}
	.st4{fill-rule:evenodd;clip-rule:evenodd;fill:#FFFFFF;}
	.st5{fill-rule:evenodd;clip-rule:evenodd;fill:#EC1C2F;}
	.st6{fill-rule:evenodd;clip-rule:evenodd;fill:#7F141C;}
	.st7{fill-rule:evenodd;clip-rule:evenodd;fill:#91CDF0;}
	.st8{fill:#FFFFFF;}
	.st9{font-family:'MyanmarText-Bold';}
	.st10{font-size:23.3259px;}
	.st11{fill-rule:evenodd;clip-rule:evenodd;fill:#E0E2E2;}
	.st12{fill-rule:evenodd;clip-rule:evenodd;fill:#1C4960;}
</style>
<g id="XMLID_1_">
	<g id="XMLID_848_">
		<path id="XMLID_835_" class="st0" d="M153,405.7H50.9c-5.1,0-9.3-4.2-9.3-9.3v-43.1c0-5.1,4.2-9.3,9.3-9.3H153
			c5.1,0,9.3,4.2,9.3,9.3v43.1C162.3,401.5,158.2,405.7,153,405.7z"/>
		<path id="XMLID_789_" class="st1" d="M122.1,405.7H48.7c-3.9,0-7-3.2-7-7v-36.4c0-3.9,3.2-7,7-7h73.4c3.9,0,7,3.2,7,7v36.4
			C129.2,402.5,126,405.7,122.1,405.7z"/>
		<path id="XMLID_828_" class="st2" d="M114.1,421.4H12c-5.1,0-9.3-4.2-9.3-9.3V369c0-5.1,4.2-9.3,9.3-9.3h102.1
			c5.1,0,9.3,4.2,9.3,9.3v43.1C123.5,417.2,119.3,421.4,114.1,421.4z"/>
		<rect id="XMLID_818_" x="2.7" y="369.2" class="st3" width="120.7" height="11.3"/>
		<rect id="XMLID_834_" x="83.4" y="401.9" class="st3" width="31" height="11.3"/>
		<rect id="XMLID_829_" x="11.1" y="383" class="st4" width="43.9" height="7.5"/>
		<circle id="XMLID_849_" class="st5" cx="145.6" cy="355" r="6.5"/>
		<circle id="XMLID_813_" class="st6" cx="135.6" cy="355" r="6.5"/>
	</g>
	<g id="XMLID_868_">
		<path id="XMLID_853_" class="st1" d="M474.8,565h-158c-13.7,0-25-11.2-25-25v-77.5c0-13.7,11.2-25,25-25h158c13.7,0,25,11.2,25,25
			V540C499.8,553.8,488.6,565,474.8,565z"/>
		<g id="XMLID_856_">
			<path id="XMLID_855_" class="st4" d="M349.4,547.7L349.4,547.7c-3.5,0-6.3-2.8-6.3-6.3v-69.6c0-3.5,2.8-6.3,6.3-6.3l0,0
				c3.5,0,6.3,2.8,6.3,6.3v69.6C355.7,544.9,352.9,547.7,349.4,547.7z"/>
			<path id="XMLID_859_" class="st4" d="M380.1,548.7L380.1,548.7c-3.5,0-6.3-2.8-6.3-6.3v-69.6c0-3.5,2.8-6.3,6.3-6.3h0
				c3.5,0,6.3,2.8,6.3,6.3v69.6C386.4,545.9,383.6,548.7,380.1,548.7z"/>
			<path id="XMLID_860_" class="st4" d="M410.1,548.7L410.1,548.7c-3.5,0-6.3-2.8-6.3-6.3v-69.6c0-3.5,2.8-6.3,6.3-6.3h0
				c3.5,0,6.3,2.8,6.3,6.3v69.6C416.4,545.9,413.6,548.7,410.1,548.7z"/>
			<path id="XMLID_861_" class="st4" d="M440.1,548.7L440.1,548.7c-3.5,0-6.3-2.8-6.3-6.3v-69.6c0-3.5,2.8-6.3,6.3-6.3h0
				c3.5,0,6.3,2.8,6.3,6.3v69.6C446.4,545.9,443.6,548.7,440.1,548.7z"/>
			<path id="XMLID_862_" class="st4" d="M470.1,547.7L470.1,547.7c-3.5,0-6.3-2.8-6.3-6.3v-69.6c0-3.5,2.8-6.3,6.3-6.3h0
				c3.5,0,6.3,2.8,6.3,6.3v69.6C476.4,544.9,473.5,547.7,470.1,547.7z"/>
			<path id="XMLID_858_" class="st4" d="M318.8,548.7L318.8,548.7c-3.5,0-6.3-2.8-6.3-6.3v-69.6c0-3.5,2.8-6.3,6.3-6.3h0
				c3.5,0,6.3,2.8,6.3,6.3v69.6C325.1,545.9,322.3,548.7,318.8,548.7z"/>
		</g>
		<path id="XMLID_857_" class="st1" d="M276,449.1L276,449.1c0-6.4,5.2-11.6,11.6-11.6h216.7c6.4,0,11.6,5.2,11.6,11.6v0
			c0,6.4-5.2,11.6-11.6,11.6H287.5C281.2,460.7,276,455.5,276,449.1z"/>
		<path id="XMLID_877_" class="st1" d="M346.8,336.4l-2.1,5.1L302.6,443c-0.7,1.6-2.5,2.4-4.1,1.7l-4.7-1.9
			c-1.6-0.7-2.4-2.5-1.7-4.1L335,335.2l1.3-3.1c0.5-1.2,1.6-1.9,2.8-1.9l0.2,0c0.4,0,0.7,0.1,1.1,0.2l4.7,1.9
			C346.7,332.9,347.4,334.8,346.8,336.4z"/>
		<path id="XMLID_873_" class="st1" d="M451.1,330.4l-4.4,1.8c-1.6,0.7-2.4,2.5-1.7,4.1l2.2,5.4L489.1,443c0.7,1.6,2.5,2.4,4.1,1.7
			l4.7-1.9c1.6-0.7,2.4-2.5,1.7-4.1l-42.9-103.5v0l-1.3-3.1c-0.3-0.7-0.8-1.2-1.4-1.6h0L451.1,330.4z"/>
		<path id="XMLID_872_" class="st1" d="M454,330.5L454,330.5c-0.1,0-0.3,0-0.4,0l-2.5,0l-111.8-0.3l-0.2,0c-1.2,0-2.3,0.8-2.8,1.9
			l-1.3,3.1l0,3.1c0,1.7,1.4,3.2,3.1,3.2l6.5,0l102.5,0.3l6.4,0c1.7,0,3.2-1.4,3.2-3.1l0-3.5v0L454,330.5z"/>
		<path id="XMLID_867_" class="st1" d="M419.7,347.9H372c-6.6,0-12-5.4-12-12v0c0-6.6,5.4-12,12-12h47.6c6.6,0,12,5.4,12,12v0
			C431.6,342.5,426.2,347.9,419.7,347.9z"/>
	</g>
	<ellipse id="XMLID_894_" class="st2" cx="198.9" cy="258.2" rx="13" ry="12.4"/>
	<ellipse id="XMLID_893_" class="st2" cx="143.4" cy="258.2" rx="13" ry="12.4"/>
	<ellipse id="XMLID_889_" class="st1" cx="215.5" cy="152.6" rx="33.5" ry="32"/>
	<path id="XMLID_887_" class="st2" d="M215.5,204.5c-29.7,0-53.9-22.8-54.3-51.2h-51.9l22.6,69.7h94.2l6.9-21.3
		C227.5,203.5,221.6,204.5,215.5,204.5z"/>
	<polygon id="XMLID_876_" class="st3" points="235.7,147.1 221.7,147.1 221.7,133.1 209.2,133.1 209.2,147.1 195.2,147.1 
		195.2,159.6 209.2,159.6 209.2,173.5 221.7,173.5 221.7,159.6 235.7,159.6 	"/>
	<rect id="XMLID_903_" x="117.8" y="230.4" class="st2" width="108.7" height="9.2"/>
	<rect id="XMLID_895_" x="49.2" y="133.1" class="st2" width="44.8" height="9.2"/>
	<polygon id="XMLID_902_" class="st2" points="126.8,237.4 119.6,239.6 117.8,239.6 85.2,135.9 94,133.1 124.6,230.4 	"/>
	<path id="XMLID_905_" class="st2" d="M606.8,133.7c-24.9,0-45.1,20.2-45.1,45.1s20.2,45.1,45.1,45.1c24.9,0,45.1-20.2,45.1-45.1
		S631.7,133.7,606.8,133.7z M606.8,214.4c-19.6,0-35.6-15.9-35.6-35.6s15.9-35.6,35.6-35.6c19.6,0,35.6,15.9,35.6,35.6
		S626.4,214.4,606.8,214.4z"/>
	<path id="XMLID_908_" class="st7" d="M592.2,154.4c-0.3-0.3-0.7-0.3-1.1-0.1c-1,0.6-1.9,1.3-2.8,2.1c-6.5,5.3-10.6,13.4-10.6,22.5
		c0,2,0.2,3.9,0.6,5.8c0.2,1.1,0.5,2.2,0.8,3.2c0.2,0.6,1,0.8,1.4,0.4l3.2-3.2c0.2-0.2,0.3-0.5,0.2-0.8c-0.4-1.5-0.6-3.1-0.6-4.7
		c0-0.2,0-0.4,0-0.7c0-7.5,3.5-14.2,9-18.4c0.8-0.6,1.7-1.2,2.6-1.8c0.5-0.3,0.6-1,0.2-1.4L592.2,154.4z"/>
	<path id="XMLID_900_" class="st2" d="M658.2,195.4c-2.9,8.9-8,16.8-14.7,23l57.2,36.9c6.3,4.1,14.8,2.3,18.9-4.1v0
		c4.1-6.3,2.3-14.8-4.1-18.9L658.2,195.4z"/>
	<path id="XMLID_916_" class="st7" d="M594.5,158.9c-0.4,0.3-0.9,0.5-1.3,0.8c-0.5,0.4-1.2,0.3-1.6-0.2l-2.2-2.2
		c-0.6-0.6-0.5-1.5,0.1-2c0.4-0.3,0.9-0.6,1.4-0.9c0.5-0.3,1.2-0.2,1.6,0.2l2.3,2.3C595.3,157.5,595.2,158.4,594.5,158.9z"/>
	<path id="XMLID_915_" class="st7" d="M583.7,184.9l-3.2,3.2c-0.5,0.5-1.2,0.3-1.4-0.4c-0.3-0.9-0.5-1.8-0.7-2.7
		c-0.1-0.3,0-0.6,0.2-0.8l3.5-3.5c0.5-0.5,1.4-0.2,1.5,0.5c0.1,0.9,0.3,1.9,0.5,2.8C584,184.4,583.9,184.7,583.7,184.9z"/>
	<g id="XMLID_920_">
		<path id="XMLID_906_" class="st1" d="M755.1,414.6H640.3c-11.6,0-21.1-9.4-21.1-21.1v-7.2c0-11.6,9.4-21.1,21.1-21.1h114.9
			c11.6,0,21.1,9.4,21.1,21.1v7.2C776.2,405.2,766.7,414.6,755.1,414.6z"/>
		<text id="XMLID_907_" transform="matrix(1 0 0 1 641.692 399.0368)" class="st8 st9 st10">BUY NOW</text>
		<path id="XMLID_913_" class="st11" d="M697.8,472.8v-29.6c0-1.9,1.5-3.4,3.4-3.4l0,0c1.9,0,3.4,1.5,3.4,3.4v29.6
			c0,1.9-1.5,3.4-3.4,3.4l0,0C699.4,476.2,697.8,474.6,697.8,472.8z"/>
		<path id="XMLID_914_" class="st11" d="M649.6,456.3l9.5-26.5c0.7-2,2.7-2.9,4.5-2.1l0,0c1.8,0.8,2.6,3.1,1.9,5.1l-9.5,26.5
			c-0.7,2-2.7,2.9-4.5,2.1v0C649.7,460.6,648.9,458.3,649.6,456.3z"/>
		<path id="XMLID_917_" class="st11" d="M704.7,308.4v29.6c0,1.9-1.5,3.4-3.4,3.4l0,0c-1.9,0-3.4-1.5-3.4-3.4v-29.6
			c0-1.9,1.5-3.4,3.4-3.4l0,0C703.2,304.9,704.7,306.5,704.7,308.4z"/>
		<path id="XMLID_912_" class="st11" d="M752.3,323.2l-9.5,26.5c-0.7,2-2.7,2.9-4.5,2.1l0,0c-1.8-0.8-2.6-3.1-1.9-5.1l9.5-26.5
			c0.7-2,2.7-2.9,4.5-2.1l0,0C752.2,318.9,753,321.2,752.3,323.2z"/>
		<path id="XMLID_919_" class="st11" d="M664,346.8l-9.5-26.5c-0.7-2-2.7-2.9-4.5-2.1l0,0c-1.8,0.8-2.6,3.1-1.9,5.1l9.5,26.5
			c0.7,2,2.7,2.9,4.5,2.1l0,0C663.9,351.1,664.7,348.8,664,346.8z"/>
		<polygon id="XMLID_918_" class="st3" points="735.9,419.3 778.4,437.5 761.9,445.2 754.2,461.8 		"/>
	</g>
	<g id="XMLID_945_">
		<polygon id="XMLID_950_" class="st12" points="340.5,107.6 340.5,174.7 325.9,174.7 325.9,122.1 		"/>
		<polygon id="XMLID_949_" class="st12" points="376.8,101.5 376.8,174.7 362.2,174.7 362.2,86.9 		"/>
		<polygon id="XMLID_948_" class="st12" points="355,93 355,174.7 347.8,174.7 347.8,100.3 		"/>
		<polygon id="XMLID_947_" class="st12" points="407.3,101.1 407.3,174.7 384.4,174.7 384.4,109.1 391.9,116.5 402.1,106.3 		"/>
		<polygon id="XMLID_946_" class="st12" points="430.8,77.6 430.8,174.7 415.6,174.7 415.6,92.8 		"/>
		<polygon id="XMLID_953_" class="st12" points="437.6,70.8 469.8,38.6 469.8,174.7 437.6,174.7 		"/>
	</g>
	<g id="XMLID_924_">
		<polygon id="XMLID_934_" class="st2" points="372,69.8 361.7,80.1 315.4,126.4 305.2,116.1 351.4,69.8 361.7,59.5 		"/>
		
			<rect id="XMLID_932_" x="369.5" y="56.3" transform="matrix(0.7071 -0.7071 0.7071 0.7071 50.3092 291.2899)" class="st2" width="14.5" height="57.2"/>
		<polygon id="XMLID_931_" class="st2" points="480,22.1 402.1,100 391.9,110.3 381.6,100 391.9,89.7 469.7,11.8 		"/>
		<polygon id="XMLID_923_" class="st2" points="487.9,3.9 483.8,19.5 479.6,35 468.2,23.6 456.9,12.2 472.4,8.1 		"/>
	</g>
</g>
</svg>
