<?xml version="1.0" encoding="utf-8"?>
<!-- Generator: Adobe Illustrator 19.0.0, SVG Export Plug-In . SVG Version: 6.00 Build 0)  -->
<svg version="1.1" id="Layer_1" xmlns="http://www.w3.org/2000/svg" xmlns:xlink="http://www.w3.org/1999/xlink" x="0px" y="0px"
	 viewBox="0 0 653.5 342" style="enable-background:new 0 0 653.5 342;" xml:space="preserve">
<style type="text/css">
	.st0{fill:#6EBE45;}
	.st1{fill:#3B97D3;}
	.st2{fill:#F0C419;}
	.st3{fill:#E57E25;}
	.st4{fill:#CFCECE;}
	.st5{fill:#E0E2E2;}
	.st6{fill:#B7B7B7;}
	.st7{fill:#0C0E18;}
	.st8{fill:#252435;}
	.st9{fill:#FFFFFF;}
	.st10{fill:#00AEEF;}
	.st11{fill:#F7941E;}
	.st12{fill-rule:evenodd;clip-rule:evenodd;fill:#BDC3C7;}
	.st13{fill:#7F8C8D;}
	.st14{fill:#95A5A6;}
	.st15{fill:none;stroke:#FFFFFF;stroke-width:0.75;stroke-miterlimit:10;}
	.st16{fill:#B8BCBC;}
	.st17{fill:#2C3E50;}
	.st18{fill:#4E60AC;}
	.st19{fill:#ECF0F1;}
	.st20{fill:#2B3990;}
	.st21{fill:#ED1C24;}
	.st22{fill:#E83E4A;}
	.st23{fill:#F05560;}
	.st24{fill:#725B25;}
	.st25{fill:#D7A429;}
	.st26{fill:#EDD27C;}
	.st27{fill:#2B2923;}
	.st28{opacity:0.26;}
	.st29{fill:#151E26;}
	.st30{fill:#BDC3C7;}
</style>
<g id="XMLID_22_">
	<circle id="XMLID_17_" class="st0" cx="127.3" cy="125.2" r="14.5"/>
	<circle id="XMLID_18_" class="st1" cx="238.1" cy="269.3" r="25.3"/>
	<circle id="XMLID_9_" class="st2" cx="396.8" cy="70.3" r="22.6"/>
	<circle id="XMLID_19_" class="st3" cx="419.5" cy="305.9" r="34.7"/>
	<circle id="XMLID_5_" class="st3" cx="204.9" cy="28.5" r="17"/>
	<path id="XMLID_4_" class="st4" d="M413.2,274H246.9v22.9c0,3.1,2.5,5.6,5.6,5.6H408c2.9,0,5.2-2.3,5.2-5.2V274z"/>
	<path id="XMLID_6_" class="st5" d="M424.4,297.8H235.7c-4.5,0-8.1,3.6-8.1,8.1l0,0c0,4.5,3.6,8.1,8.1,8.1h188.7
		c4.5,0,8.1-3.6,8.1-8.1l0,0C432.5,301.4,428.8,297.8,424.4,297.8z"/>
	<rect id="XMLID_7_" x="246.9" y="269.2" class="st6" width="166.4" height="14.2"/>
	<path id="XMLID_3_" class="st5" d="M474.3,274H185.7c-11,0-20-9-20-20V90.6c0-11,9-20,20-20h288.6c11,0,20,9,20,20V254
		C494.3,265,485.4,274,474.3,274z"/>
	<path id="XMLID_8_" class="st7" d="M494.3,244H165.7V80.4c0-5.4,4.4-9.8,9.8-9.8h309c5.4,0,9.8,4.4,9.8,9.8V244z"/>
	<rect id="XMLID_1_" x="179.3" y="79.2" class="st8" width="301.5" height="155.8"/>
	<circle id="XMLID_2_" class="st9" cx="330" cy="258.8" r="10.5"/>
	<rect id="XMLID_21_" x="211.3" y="51.2" class="st7" width="129.3" height="192.8"/>
	<path id="XMLID_25_" class="st8" d="M340.5,51.2H211.3V36c0-5.3,4.3-9.6,9.6-9.6H331c5.3,0,9.6,4.3,9.6,9.6V51.2z"/>
	<rect id="XMLID_24_" x="228.7" y="79.2" class="st10" width="46.3" height="6.3"/>
	<rect id="XMLID_28_" x="252.4" y="135.8" class="st9" width="23.2" height="6.3"/>
	<rect id="XMLID_41_" x="264" y="176.5" class="st9" width="46.3" height="6.3"/>
	<rect id="XMLID_42_" x="229.3" y="116.4" class="st9" width="46.3" height="6.3"/>
	<rect id="XMLID_29_" x="287.2" y="135.8" class="st10" width="39.2" height="6.3"/>
	<rect id="XMLID_27_" x="219.2" y="62.6" class="st10" width="23.2" height="6.3"/>
	<rect id="XMLID_40_" x="219.2" y="158.5" class="st10" width="23.2" height="6.3"/>
	<rect id="XMLID_37_" x="230.7" y="212.3" class="st10" width="23.2" height="6.3"/>
	<rect id="XMLID_38_" x="230.7" y="176.5" class="st10" width="23.2" height="6.3"/>
	<rect id="XMLID_31_" x="250.4" y="62.6" class="st11" width="23.2" height="6.3"/>
	<rect id="XMLID_32_" x="219.2" y="97.1" class="st11" width="23.2" height="6.3"/>
	<rect id="XMLID_33_" x="248.9" y="97.1" class="st9" width="30.2" height="6.3"/>
	<g id="XMLID_14_">
		<ellipse id="XMLID_252_" class="st0" cx="562.2" cy="232.8" rx="41.7" ry="42.3"/>
		<g id="XMLID_227_">
			<g id="Forma_1">
				<g id="XMLID_64_">
					<path id="XMLID_65_" class="st12" d="M585.8,230.2c-0.1-0.7-0.9-1.2-1.5-1.2c-2.2,0-4.1-1.3-4.9-3.3c-0.8-2-0.3-4.4,1.3-5.9
						c0.5-0.5,0.6-1.3,0.1-1.8c-1.1-1.4-2.4-2.7-3.8-3.8c-0.5-0.4-1.3-0.4-1.8,0.1c-1.4,1.6-4,2.2-5.9,1.3c-2-0.9-3.3-2.9-3.2-5.2
						c0-0.7-0.5-1.3-1.2-1.4c-1.8-0.2-3.6-0.2-5.4,0c-0.7,0.1-1.2,0.7-1.2,1.4c0.1,2.2-1.2,4.3-3.3,5.1c-1.9,0.8-4.5,0.2-5.9-1.3
						c-0.5-0.5-1.3-0.6-1.8-0.2c-1.4,1.1-2.7,2.4-3.9,3.8c-0.4,0.5-0.4,1.3,0.1,1.8c1.7,1.5,2.2,3.9,1.3,5.9c-0.8,2-2.9,3.2-5.2,3.2
						c-0.8,0-1.3,0.5-1.4,1.2c-0.2,1.8-0.2,3.6,0,5.4c0.1,0.7,0.9,1.2,1.6,1.2c2.1-0.1,4.1,1.2,4.9,3.3c0.8,2,0.3,4.4-1.3,5.9
						c-0.5,0.5-0.6,1.3-0.1,1.8c1.1,1.4,2.4,2.7,3.8,3.8c0.5,0.4,1.3,0.4,1.8-0.1c1.4-1.6,4-2.2,5.9-1.3c2.1,0.9,3.3,2.9,3.2,5.2
						c0,0.7,0.5,1.3,1.2,1.4c0.9,0.1,1.8,0.2,2.7,0.2c0.9,0,1.7,0,2.6-0.1c0.7-0.1,1.2-0.7,1.2-1.4c-0.1-2.2,1.2-4.3,3.3-5.1
						c2-0.8,4.5-0.2,5.9,1.3c0.5,0.5,1.2,0.6,1.8,0.2c1.4-1.1,2.7-2.4,3.9-3.8c0.4-0.5,0.4-1.3-0.1-1.8c-1.7-1.5-2.2-3.9-1.3-5.9
						c0.8-1.9,2.8-3.2,4.9-3.2l0.3,0c0.7,0.1,1.3-0.5,1.4-1.2C586,233.8,586,232,585.8,230.2z M562.2,240.8c-4.4,0-7.9-3.6-7.9-7.9
						c0-4.4,3.6-7.9,7.9-7.9c4.4,0,7.9,3.6,7.9,7.9C570.2,237.3,566.6,240.8,562.2,240.8z"/>
				</g>
			</g>
			<circle id="XMLID_251_" class="st13" cx="562.2" cy="232.8" r="15.1"/>
			<circle id="XMLID_250_" class="st14" cx="562.2" cy="232.9" r="6.3"/>
		</g>
	</g>
	<rect id="XMLID_44_" x="289.9" y="78.9" class="st9" width="20.5" height="6.3"/>
	<rect id="XMLID_30_" x="257.6" y="195" class="st9" width="20.5" height="6.3"/>
	<rect id="XMLID_39_" x="252.7" y="158.5" class="st11" width="30.1" height="6.3"/>
	<g id="XMLID_12_">
		<ellipse id="XMLID_138_" class="st2" cx="107.1" cy="220.1" rx="45.6" ry="46.4"/>
		<g id="XMLID_155_">
			<path id="XMLID_139_" class="st7" d="M113.5,253.3h-12.8c-1.2,0-2.2-1-2.2-2.2v-26c0-1.2,1-2.2,2.2-2.2h12.8c1.2,0,2.2,1,2.2,2.2
				v26C115.7,252.3,114.8,253.3,113.5,253.3z"/>
			<rect id="XMLID_152_" x="99.5" y="225.3" class="st5" width="15.2" height="23.5"/>
			<circle id="XMLID_144_" class="st5" cx="107.1" cy="251.2" r="1.3"/>
		</g>
		<g id="XMLID_175_">
			<path id="XMLID_181_" class="st7" d="M136.3,214.7c0,4.2-3.4,10.5-7.6,10.5v2.4c5.4,0,9.9-7.3,9.9-12.9s-3.6-13.6-9.1-13.6v2.4
				C133.8,203.4,136.3,210.4,136.3,214.7z"/>
			
				<rect id="XMLID_177_" x="127.1" y="226.3" transform="matrix(0.8956 0.4448 -0.4448 0.8956 114.8304 -34.362)" class="st7" width="7" height="2.4"/>
			
				<rect id="XMLID_176_" x="126.1" y="223.1" transform="matrix(0.4448 -0.8956 0.8956 0.4448 -128.9655 240.6134)" class="st7" width="7" height="2.4"/>
		</g>
		<g id="XMLID_182_">
			<path id="XMLID_185_" class="st7" d="M77.2,217.4c0-4.2,3.4-10.5,7.6-10.5v-2.4c-5.4,0-9.9,7.3-9.9,12.9c0,5.5,3.6,13.6,9.1,13.6
				v-2.4C79.8,228.6,77.2,221.6,77.2,217.4z"/>
			
				<rect id="XMLID_184_" x="79.4" y="203.3" transform="matrix(-0.8956 -0.4448 0.4448 -0.8956 66.2438 424.5911)" class="st7" width="7" height="2.4"/>
			
				<rect id="XMLID_183_" x="80.5" y="206.5" transform="matrix(-0.4448 0.8956 -0.8956 -0.4448 307.351 224.861)" class="st7" width="7" height="2.4"/>
		</g>
		<g id="XMLID_187_">
			<path id="XMLID_174_" class="st5" d="M116.3,198.8H97.9c-2.4,0-4.3-1.9-4.3-4.3v-0.5c0-2.4,1.9-4.3,4.3-4.3h18.4
				c2.4,0,4.3,1.9,4.3,4.3v0.5C120.7,196.8,118.7,198.8,116.3,198.8z"/>
			<ellipse id="XMLID_186_" class="st5" cx="107.1" cy="189.3" rx="9.3" ry="8.4"/>
		</g>
	</g>
	<rect id="XMLID_35_" x="229.4" y="135.8" class="st11" width="17.5" height="6.3"/>
	<rect id="XMLID_36_" x="219.2" y="195" class="st11" width="30.2" height="6.3"/>
	<rect id="XMLID_43_" x="283.7" y="116.4" class="st11" width="30.2" height="6.3"/>
	<g id="XMLID_80_">
		<path id="XMLID_189_" class="st3" d="M631.9,62.8c0,17.9-7.6,34.1-19.7,45.3c-3.2,2.9-6.6,5.5-10.3,7.7c-0.9,0.6-1.9,1.1-2.8,1.6
			c-8.2,4.3-17.5,6.7-27.4,6.7c-9.9,0-19.2-2.4-27.4-6.7c-1-0.5-1.9-1-2.8-1.6c-3.7-2.2-7.2-4.8-10.3-7.7
			c-12.1-11.2-19.7-27.4-19.7-45.3c0-33.8,27-61.2,60.3-61.2C604.9,1.6,631.9,29,631.9,62.8z"/>
		<g id="XMLID_132_">
			<g id="XMLID_91_">
				<path id="XMLID_180_" class="st8" d="M612.2,33.7v74.3c-3.2,2.9-6.6,5.5-10.3,7.7c-0.9,0.6-1.9,1.1-2.8,1.6
					c-8.2,4.3-17.5,6.7-27.4,6.7c-9.9,0-19.2-2.4-27.4-6.7c-1-0.5-1.9-1-2.8-1.6c-3.7-2.2-7.2-4.8-10.3-7.7V33.7
					c0-6.5,5.3-11.8,11.8-11.8h57.5C606.9,21.9,612.2,27.2,612.2,33.7z"/>
				<path id="XMLID_172_" class="st5" d="M612.2,39.4v68.6c-3.2,2.9-6.6,5.5-10.3,7.7c-0.9,0.6-1.9,1.1-2.8,1.6
					c-8.2,4.3-17.5,6.7-27.4,6.7c-9.9,0-19.2-2.4-27.4-6.7c-1-0.5-1.9-1-2.8-1.6c-3.7-2.2-7.2-4.8-10.3-7.7V39.4H612.2z"/>
				<path id="XMLID_89_" class="st15" d="M557.3,34.2h-13.4c-0.9,0-1.7-0.7-1.7-1.7v-2.4c0-0.9,0.7-1.7,1.7-1.7h13.4
					c0.9,0,1.7,0.7,1.7,1.7v2.4C559,33.5,558.3,34.2,557.3,34.2z"/>
				<path id="XMLID_97_" class="st15" d="M601.9,34.2H598c-1.2,0-2.3-1-2.3-2.3v-1.2c0-1.2,1-2.3,2.3-2.3h3.9c1.2,0,2.3,1,2.3,2.3
					V32C604.1,33.2,603.1,34.2,601.9,34.2z"/>
			</g>
			<rect id="XMLID_123_" x="537.8" y="46.1" class="st16" width="24.8" height="4.7"/>
			<rect id="XMLID_129_" x="538.3" y="65.6" class="st16" width="20.8" height="4.7"/>
			<rect id="XMLID_130_" x="537.8" y="87.6" class="st16" width="33.8" height="4.7"/>
			<rect id="XMLID_131_" x="537.8" y="105.8" class="st16" width="18.3" height="4.7"/>
			<circle id="XMLID_128_" class="st16" cx="601.2" cy="47.9" r="2.9"/>
			<circle id="XMLID_133_" class="st16" cx="601.2" cy="67.4" r="2.9"/>
			<circle id="XMLID_135_" class="st16" cx="601.2" cy="89.4" r="2.9"/>
			<circle id="XMLID_137_" class="st16" cx="601.2" cy="107.6" r="2.9"/>
		</g>
		<rect id="XMLID_120_" x="529.5" y="57.7" class="st3" width="85.6" height="1.6"/>
		<rect id="XMLID_125_" x="529.5" y="76.5" class="st3" width="85.6" height="1.6"/>
		<rect id="XMLID_126_" x="527.9" y="96" class="st3" width="85.6" height="1.6"/>
		<path id="XMLID_141_" class="st3" d="M541.4,115.8h60.5c-0.9,0.6-1.9,1.1-2.8,1.6h-54.8C543.3,116.8,542.4,116.3,541.4,115.8z"/>
	</g>
	<g id="XMLID_127_">
		<path id="XMLID_217_" class="st17" d="M652.4,158.2c0,10.7-3.1,20.6-8.4,29c-0.8,1.2-1.6,2.4-2.5,3.6c-0.8,1.1-1.7,2.2-2.6,3.2
			c-1.1,1.3-2.3,2.5-3.5,3.6c-9.3,8.7-21.8,14-35.5,14c-7.7,0-15.1-1.7-21.7-4.7c-2.3-1-4.5-2.3-6.5-3.6
			c-14.6-9.5-24.3-26.1-24.3-45c0-12.7,4.4-24.3,11.6-33.5c1-1.2,2-2.5,3.1-3.6c1.1-1.2,2.3-2.3,3.5-3.3c1.5-1.3,3-2.5,4.6-3.6
			c8.4-5.9,18.6-9.3,29.7-9.3c21.5,0,40,13.2,48.1,32c0.5,1.2,1,2.4,1.4,3.6C651.3,146,652.4,151.9,652.4,158.2z"/>
		<rect id="XMLID_90_" x="583.6" y="114.1" class="st1" width="32.4" height="3.6"/>
		<path id="XMLID_173_" class="st3" d="M574.7,114.1v3.6h-9.1c1.5-1.3,3-2.5,4.6-3.6H574.7z"/>
		<rect id="XMLID_140_" x="559.5" y="130.1" class="st18" width="23.3" height="3.6"/>
		<rect id="XMLID_159_" x="576.9" y="136.8" class="st18" width="23.3" height="3.6"/>
		<rect id="XMLID_162_" x="573.1" y="193.9" class="st18" width="23.3" height="3.6"/>
		<rect id="XMLID_145_" x="550.8" y="152.9" class="st18" width="16.2" height="3.6"/>
		<path id="XMLID_171_" class="st19" d="M602.2,121.1v3.6H559c1-1.2,2-2.5,3.1-3.6H602.2z"/>
		<rect id="XMLID_142_" x="587.4" y="130.1" class="st3" width="32.4" height="3.6"/>
		<path id="XMLID_169_" class="st3" d="M638.8,193.9c-1.1,1.3-2.3,2.5-3.5,3.6h-13.5v-3.6H638.8z"/>
		<rect id="XMLID_158_" x="563.8" y="136.8" class="st3" width="7.3" height="3.6"/>
		<rect id="XMLID_156_" x="565.3" y="187.2" class="st19" width="32.4" height="3.6"/>
		<rect id="XMLID_161_" x="566.6" y="143.2" class="st19" width="32.4" height="3.6"/>
		<rect id="XMLID_146_" x="556.9" y="159.1" class="st19" width="32.4" height="3.6"/>
		<rect id="XMLID_147_" x="597.8" y="159.1" class="st3" width="53.5" height="3.6"/>
		<path id="XMLID_168_" class="st3" d="M649.4,140.4h-42v-3.6H648C648.5,138,649,139.2,649.4,140.4z"/>
		<rect id="XMLID_150_" x="570" y="172.3" class="st3" width="53.5" height="3.6"/>
		<rect id="XMLID_151_" x="559" y="180.7" class="st18" width="53.5" height="3.6"/>
		<rect id="XMLID_148_" x="562.6" y="166" class="st18" width="41.9" height="3.6"/>
		<path id="XMLID_167_" class="st18" d="M643.9,187.2c-0.8,1.2-1.6,2.4-2.5,3.6h-24.4v-3.6H643.9z"/>
		<rect id="XMLID_149_" x="613.4" y="166" class="st19" width="18.8" height="3.6"/>
		<rect id="XMLID_153_" x="602.7" y="187.2" class="st3" width="9.4" height="3.6"/>
		<path id="XMLID_165_" class="st19" d="M587.4,203.2v3.6h-9.2c-2.3-1-4.5-2.3-6.5-3.6H587.4z"/>
		<rect id="XMLID_143_" x="625.8" y="130.1" class="st19" width="14.6" height="3.6"/>
		<rect id="XMLID_163_" x="601.5" y="193.9" class="st19" width="14.6" height="3.6"/>
	</g>
	<circle id="XMLID_10_" class="st10" cx="511.7" cy="292.1" r="9.8"/>
	<circle id="XMLID_16_" class="st20" cx="516.6" cy="164.6" r="14.5"/>
	<circle id="XMLID_11_" class="st0" cx="159.1" cy="282.3" r="5.3"/>
	<g id="XMLID_13_">
		<ellipse id="XMLID_190_" class="st20" cx="99.2" cy="67.4" rx="54.2" ry="55.1"/>
		<g id="XMLID_228_">
			<g id="XMLID_243_">
				
					<rect id="XMLID_249_" x="92.3" y="42.3" transform="matrix(0.7071 0.7071 -0.7071 0.7071 83.1 -50.3671)" class="st5" width="20" height="65.7"/>
				<g id="XMLID_245_">
					
						<rect id="XMLID_248_" x="84.1" y="79.1" transform="matrix(0.7071 0.7071 -0.7071 0.7071 87.2171 -40.4274)" class="st21" width="16.6" height="12"/>
					
						<rect id="XMLID_247_" x="96.5" y="66.7" transform="matrix(0.7071 0.7071 -0.7071 0.7071 82.0677 -52.8592)" class="st22" width="16.6" height="12"/>
					
						<rect id="XMLID_246_" x="108.9" y="54.3" transform="matrix(0.7071 0.7071 -0.7071 0.7071 76.9365 -65.2471)" class="st23" width="16.6" height="12"/>
				</g>
				<circle id="XMLID_244_" class="st7" cx="78.2" cy="90.7" r="2.6"/>
			</g>
			<g id="XMLID_236_">
				
					<rect id="XMLID_242_" x="83.4" y="33.3" transform="matrix(0.9403 0.3404 -0.3404 0.9403 28.1191 -27.8583)" class="st5" width="20" height="65.7"/>
				<g id="XMLID_238_">
					
						<rect id="XMLID_241_" x="80.4" y="73.4" transform="matrix(0.9403 0.3404 -0.3404 0.9403 32.3326 -25.44)" class="st24" width="16.6" height="12"/>
					
						<rect id="XMLID_240_" x="86.4" y="56.9" transform="matrix(0.9403 0.3404 -0.3404 0.9403 27.0627 -28.4646)" class="st25" width="16.6" height="12"/>
					
						<rect id="XMLID_239_" x="92.3" y="40.4" transform="matrix(0.9403 0.3404 -0.3404 0.9403 21.8114 -31.4785)" class="st2" width="16.6" height="12"/>
				</g>
				<circle id="XMLID_237_" class="st7" cx="78.2" cy="90.5" r="2.6"/>
			</g>
			<g id="XMLID_229_">
				<rect id="XMLID_235_" x="74.2" y="29.4" class="st5" width="20" height="65.7"/>
				<g id="XMLID_231_">
					<rect id="XMLID_234_" x="76" y="70.3" class="st20" width="16.6" height="12"/>
					<rect id="XMLID_233_" x="76" y="52.7" class="st18" width="16.6" height="12"/>
					<rect id="XMLID_232_" x="76" y="35.2" class="st10" width="16.6" height="12"/>
				</g>
				<circle id="XMLID_230_" class="st7" cx="78.2" cy="90.3" r="2.6"/>
			</g>
		</g>
	</g>
	<g id="XMLID_88_">
		<path id="XMLID_164_" class="st1" d="M102.6,149.9c0,28.4-22.7,51.5-50.6,51.5c-28,0-50.6-23-50.6-51.5
			c0-20.3,11.5-37.8,28.3-46.2c5.8-2.9,12.1-4.7,18.9-5.2c1.1-0.1,2.3-0.1,3.5-0.1c2.9,0,5.7,0.2,8.5,0.7c2.8,0.5,5.4,1.2,8,2.1
			c2.8,1,5.5,2.2,8,3.6C92.1,113.6,102.6,130.5,102.6,149.9z"/>
		<g id="XMLID_124_">
			<g id="XMLID_82_">
				<path id="XMLID_154_" class="st2" d="M29.7,103.7c5.8-2.9,12.1-4.7,18.9-5.2v78.8c0,1.3-1.1,2.4-2.4,2.4h-14
					c-1.3,0-2.4-1.1-2.4-2.4V103.7z"/>
				<circle id="XMLID_96_" class="st7" cx="39.1" cy="167.3" r="3.8"/>
				<g id="XMLID_83_">
					<rect id="XMLID_95_" x="37.6" y="152.7" class="st7" width="10.9" height="2"/>
					<rect id="XMLID_94_" x="43.1" y="145.1" class="st7" width="5.5" height="2"/>
					<rect id="XMLID_93_" x="43.1" y="137.4" class="st7" width="5.5" height="2"/>
					<rect id="XMLID_92_" x="43.1" y="130" class="st7" width="5.5" height="2"/>
					<rect id="XMLID_87_" x="37.6" y="122.8" class="st7" width="10.9" height="2"/>
					<rect id="XMLID_86_" x="43.1" y="115.2" class="st7" width="5.5" height="2"/>
					<rect id="XMLID_85_" x="43.1" y="107.4" class="st7" width="5.5" height="2"/>
					<rect id="XMLID_84_" x="43.1" y="100.1" class="st7" width="5.5" height="2"/>
				</g>
			</g>
			<g id="XMLID_105_">
				<path id="XMLID_134_" class="st17" d="M76.5,104.9v54.6c0,0.3-0.1,0.7-0.4,0.9c-0.2,0.2-0.6,0.4-0.9,0.4H61.8
					c-0.4,0-0.7-0.2-0.9-0.4c-0.2-0.2-0.4-0.5-0.4-0.9V99.2c2.8,0.5,5.4,1.2,8,2.1C71.3,102.2,74,103.4,76.5,104.9z"/>
				<polygon id="XMLID_122_" class="st26" points="68.5,179.1 60.5,160.3 76.5,160.3 68.5,179.1 				"/>
				<polygon id="XMLID_121_" class="st27" points="68.5,179.1 66.1,173.6 70.9,173.6 68.5,179.1 				"/>
				<g id="XMLID_115_" class="st28">
					<g id="XMLID_118_">
						<path id="XMLID_136_" class="st29" d="M68.5,101.2v59.5h-7.2c-0.3,0-0.6-0.2-0.7-0.4c-0.1-0.1-0.1-0.2-0.1-0.4V99.2
							C63.2,99.6,65.9,100.3,68.5,101.2z"/>
						<polygon id="XMLID_119_" class="st29" points="68.5,173.6 68.5,160.8 68.5,160.3 60.6,160.3 60.5,160.3 66.1,173.6 
							68.5,179.1 						"/>
					</g>
					<polygon id="XMLID_116_" class="st29" points="68.5,173.6 66.1,173.6 68.5,179.1 					"/>
				</g>
			</g>
		</g>
	</g>
	<path id="XMLID_262_" class="st13" d="M471.9,48.5"/>
	<path id="XMLID_265_" class="st0" d="M505,78.6"/>
	<g id="XMLID_15_">
		<path id="XMLID_253_" class="st5" d="M441,81c-20.8,26.4-21.1,43.9-10.8,52c10.3,8.1,27.3,3.8,48.1-22.5
			C499.2,84,507.7,56,497.4,47.9C487.1,39.8,461.8,54.6,441,81z"/>
		<path id="XMLID_256_" class="st21" d="M464.8,117.3c0,0-5.4,31.8-15.7,50.3c-3,5.3,5.4-40.4-1.5-34.7"/>
		<path id="XMLID_255_" class="st21" d="M436,97.7c0,0-29.7,12.6-45.3,26.9c-4.5,4.1,38.1-14.6,34.1-6.7"/>
		<path id="XMLID_254_" class="st21" d="M420.4,148.6l-1.3-1.1c-0.7-0.5-0.8-1.5-0.3-2.2l30.5-38.7l2.6,2c0.7,0.5,0.8,1.5,0.3,2.2
			l-29.6,37.4C422.1,149,421.1,149.1,420.4,148.6z"/>
		<path id="XMLID_266_" class="st11" d="M487.1,66.5c5.8,4.6,14.6,0.6,14.6-6.9c0.1-5.3-1.3-9.4-4.4-11.8c-3-2.4-7.3-2.8-12.4-1.5
			c-7.2,1.8-9.1,11.2-3.3,15.8L487.1,66.5z"/>
		<circle id="XMLID_263_" class="st13" cx="470.9" cy="81.5" r="10.7"/>
		<circle id="XMLID_264_" class="st30" cx="470.9" cy="81.5" r="7.9"/>
		<circle id="XMLID_267_" class="st9" cx="470.9" cy="76.6" r="2.6"/>
	</g>
	<g id="XMLID_20_">
		<polygon id="XMLID_63_" class="st5" points="408.1,146.7 408.7,151.6 412.1,155.8 406.7,155.9 402.6,158.6 402,153.6 398.6,149.5 
			403.9,149.4 		"/>
		<polygon id="XMLID_62_" class="st30" points="426.1,166.9 427.1,169.5 429.7,171.5 426.4,171.7 424.2,173.2 423.2,170.7 
			420.6,168.7 423.9,168.5 		"/>
		<polygon id="XMLID_61_" class="st16" points="406.9,128.6 407.8,131.9 410.7,134.6 406.7,134.5 403.7,136.1 402.9,132.9 
			400,130.1 404,130.2 		"/>
		<polygon id="XMLID_59_" class="st9" points="392.1,170.1 393.5,172.4 396.1,173.6 393.5,174.9 392.1,177.1 390.7,174.9 
			388.1,173.6 390.7,172.4 		"/>
		<polygon id="XMLID_58_" class="st30" points="405,170.5 408.2,171.2 412.1,170 410,173.4 410.1,176.8 406.8,176 403,177.3 
			405,173.8 		"/>
		<polygon id="XMLID_57_" class="st5" points="429.7,150.3 432.4,150.3 434.8,148.7 434.5,151.6 435.7,154 433,154 430.6,155.5 
			430.9,152.7 		"/>
	</g>
</g>
</svg>
