<?xml version="1.0" encoding="utf-8"?>
<!-- Generator: Adobe Illustrator 19.0.0, SVG Export Plug-In . SVG Version: 6.00 Build 0)  -->
<svg version="1.1" id="Layer_1" xmlns="http://www.w3.org/2000/svg" xmlns:xlink="http://www.w3.org/1999/xlink" x="0px" y="0px"
	 viewBox="0 0 473.5 362.3" style="enable-background:new 0 0 473.5 362.3;" xml:space="preserve">
<style type="text/css">
	.st0{fill-rule:evenodd;clip-rule:evenodd;fill:#3B97D3;}
	.st1{fill:#1F407D;}
	.st2{fill-rule:evenodd;clip-rule:evenodd;fill:#6F7172;}
	.st3{fill:#3B97D3;}
	.st4{fill:#F78E1E;}
	.st5{fill:#F9A22F;}
	.st6{fill:#E0E2E2;}
</style>
<g id="Forma_1_2_">
	<g id="XMLID_163_">
		<path id="XMLID_164_" class="st0" d="M-14.3-101.4c-0.3-2.4-3.1-4.2-5.5-4.2c-7.8,0-14.8-4.6-17.7-11.7c-3-7.3-1.1-15.8,4.8-21.2
			c1.8-1.7,2.1-4.5,0.5-6.5c-4-5.1-8.6-9.7-13.6-13.7c-2-1.6-4.8-1.3-6.5,0.5c-5.1,5.7-14.3,7.8-21.4,4.8
			c-7.4-3.1-12-10.6-11.6-18.6c0.1-2.5-1.7-4.7-4.2-5c-6.4-0.7-12.8-0.8-19.3-0.1c-2.5,0.3-4.3,2.4-4.2,4.9
			c0.3,7.9-4.4,15.3-11.7,18.3c-7,2.9-16.1,0.8-21.2-4.8c-1.7-1.8-4.5-2.1-6.5-0.5c-5.1,4-9.8,8.6-13.9,13.7c-1.6,2-1.3,4.8,0.5,6.5
			c6,5.4,7.9,14,4.8,21.4c-3,7-10.3,11.6-18.6,11.6c-2.7-0.1-4.6,1.7-4.9,4.2c-0.8,6.4-0.8,13,0,19.5c0.3,2.4,3.2,4.2,5.6,4.2
			c7.5-0.2,14.6,4.4,17.6,11.7c3,7.3,1.1,15.8-4.8,21.2c-1.8,1.7-2.1,4.5-0.5,6.5c4,5.1,8.5,9.7,13.5,13.7c2,1.6,4.8,1.4,6.5-0.5
			c5.1-5.7,14.3-7.8,21.3-4.8c7.4,3.1,12,10.6,11.6,18.6c-0.1,2.5,1.7,4.7,4.2,5c3.3,0.4,6.6,0.6,9.9,0.6c3.1,0,6.3-0.2,9.4-0.5
			c2.5-0.3,4.3-2.4,4.2-4.9c-0.3-7.9,4.4-15.3,11.7-18.3c7-2.9,16.1-0.8,21.2,4.8c1.7,1.8,4.5,2.1,6.5,0.5c5.1-4,9.8-8.6,13.9-13.7
			c1.6-2,1.4-4.8-0.5-6.5c-6-5.4-7.9-14-4.8-21.4c2.9-7,9.9-11.6,17.5-11.6l1.1,0c2.5,0.2,4.7-1.7,5-4.2
			C-13.6-88.3-13.6-94.9-14.3-101.4z M-99.3-63.1c-15.7,0-28.6-12.8-28.6-28.6c0-15.8,12.8-28.6,28.6-28.6
			c15.7,0,28.6,12.8,28.6,28.6C-70.7-75.9-83.5-63.1-99.3-63.1z"/>
	</g>
</g>
<g id="Forma_1_6_">
	<g id="XMLID_158_">
		<path id="XMLID_159_" class="st0" d="M51.1-314.5c-0.2-1.6-2.1-2.8-3.7-2.8c-5.2,0-9.9-3.1-11.8-7.8c-2-4.9-0.7-10.6,3.2-14.2
			c1.2-1.1,1.4-3,0.3-4.3c-2.7-3.4-5.7-6.5-9.1-9.2c-1.3-1-3.2-0.9-4.3,0.4c-3.4,3.8-9.5,5.2-14.3,3.2c-4.9-2.1-8-7.1-7.7-12.4
			c0.1-1.7-1.1-3.1-2.8-3.3c-4.3-0.5-8.6-0.5-12.9,0c-1.7,0.2-2.9,1.6-2.8,3.3c0.2,5.3-3,10.2-7.8,12.2c-4.7,1.9-10.8,0.5-14.2-3.2
			c-1.1-1.2-3-1.4-4.3-0.4c-3.4,2.7-6.5,5.8-9.2,9.2c-1.1,1.3-0.9,3.2,0.3,4.4c4,3.6,5.3,9.3,3.2,14.3c-2,4.7-6.9,7.7-12.4,7.7
			c-1.8-0.1-3.1,1.2-3.3,2.8c-0.5,4.3-0.5,8.7,0,13c0.2,1.6,2.1,2.8,3.7,2.8c5-0.1,9.8,3,11.8,7.8c2,4.9,0.7,10.6-3.2,14.2
			c-1.2,1.1-1.4,3-0.3,4.3c2.7,3.4,5.7,6.5,9,9.2c1.3,1.1,3.2,0.9,4.4-0.3c3.4-3.8,9.5-5.2,14.3-3.2c4.9,2.1,8,7.1,7.7,12.4
			c-0.1,1.7,1.1,3.2,2.8,3.3c2.2,0.3,4.4,0.4,6.6,0.4c2.1,0,4.2-0.1,6.3-0.3c1.7-0.2,2.9-1.6,2.8-3.3c-0.2-5.3,3-10.2,7.8-12.2
			c4.7-1.9,10.8-0.5,14.2,3.2c1.1,1.2,3,1.4,4.3,0.4c3.4-2.7,6.5-5.8,9.2-9.2c1.1-1.3,0.9-3.2-0.3-4.3c-4-3.6-5.3-9.3-3.2-14.3
			c1.9-4.6,6.6-7.8,11.7-7.8l0.7,0c1.6,0.1,3.1-1.1,3.3-2.8C51.5-305.8,51.5-310.2,51.1-314.5z M-5.7-288.9
			c-10.5,0-19.1-8.6-19.1-19.1c0-10.5,8.6-19.1,19.1-19.1c10.5,0,19.1,8.6,19.1,19.1C13.4-297.5,4.8-288.9-5.7-288.9z"/>
	</g>
</g>
<g id="Forma_1_4_">
	<g id="XMLID_153_">
		<path id="XMLID_154_" class="st0" d="M-441.2-142.1c-0.1-1.1-1.4-2-2.6-2c-3.6,0-6.9-2.1-8.2-5.5c-1.4-3.4-0.5-7.3,2.2-9.8
			c0.9-0.8,1-2.1,0.2-3c-1.9-2.4-4-4.5-6.3-6.4c-0.9-0.7-2.2-0.6-3,0.2c-2.4,2.6-6.6,3.6-9.9,2.2c-3.4-1.4-5.6-4.9-5.4-8.6
			c0.1-1.2-0.8-2.2-2-2.3c-3-0.3-6-0.4-8.9,0c-1.2,0.1-2,1.1-2,2.3c0.1,3.7-2.1,7.1-5.4,8.5c-3.2,1.3-7.5,0.4-9.8-2.2
			c-0.8-0.9-2.1-1-3-0.3c-2.4,1.9-4.5,4-6.4,6.4c-0.7,0.9-0.6,2.2,0.2,3c2.8,2.5,3.7,6.5,2.2,9.9c-1.4,3.3-4.8,5.4-8.6,5.4
			c-1.3,0-2.2,0.8-2.3,2c-0.3,3-0.4,6,0,9c0.1,1.1,1.5,2,2.6,2c3.5-0.1,6.8,2.1,8.2,5.5c1.4,3.4,0.5,7.3-2.2,9.8
			c-0.9,0.8-1,2.1-0.2,3c1.8,2.4,4,4.5,6.3,6.4c0.9,0.7,2.2,0.6,3-0.2c2.4-2.6,6.6-3.6,9.9-2.2c3.4,1.4,5.6,4.9,5.4,8.6
			c-0.1,1.2,0.8,2.2,2,2.3c1.5,0.2,3,0.3,4.6,0.3c1.5,0,2.9-0.1,4.4-0.2c1.2-0.1,2-1.1,2-2.3c-0.1-3.7,2.1-7.1,5.4-8.5
			c3.3-1.3,7.5-0.4,9.8,2.2c0.8,0.9,2.1,1,3,0.3c2.4-1.9,4.5-4,6.4-6.4c0.7-0.9,0.6-2.2-0.2-3c-2.8-2.5-3.7-6.5-2.2-9.9
			c1.4-3.2,4.6-5.4,8.1-5.4l0.5,0c1.1,0.1,2.2-0.8,2.3-2C-440.9-136-440.9-139.1-441.2-142.1z M-480.7-124.3
			c-7.3,0-13.3-6-13.3-13.3c0-7.3,5.9-13.3,13.3-13.3c7.3,0,13.3,6,13.3,13.3C-467.4-130.2-473.4-124.3-480.7-124.3z"/>
	</g>
</g>
<g id="Forma_1_3_">
	<g id="XMLID_148_">
		<path id="XMLID_149_" class="st0" d="M-505.7-227.3c0-0.4-0.5-0.7-1-0.7c-1.4,0-2.6-0.8-3.1-2c-0.5-1.3-0.2-2.7,0.8-3.7
			c0.3-0.3,0.4-0.8,0.1-1.1c-0.7-0.9-1.5-1.7-2.4-2.4c-0.3-0.3-0.8-0.2-1.1,0.1c-0.9,1-2.5,1.3-3.7,0.8c-1.3-0.5-2.1-1.8-2-3.2
			c0-0.4-0.3-0.8-0.7-0.9c-1.1-0.1-2.2-0.1-3.3,0c-0.4,0-0.8,0.4-0.7,0.9c0,1.4-0.8,2.7-2,3.2c-1.2,0.5-2.8,0.1-3.7-0.8
			c-0.3-0.3-0.8-0.4-1.1-0.1c-0.9,0.7-1.7,1.5-2.4,2.4c-0.3,0.3-0.2,0.8,0.1,1.1c1,0.9,1.4,2.4,0.8,3.7c-0.5,1.2-1.8,2-3.2,2
			c-0.5,0-0.8,0.3-0.9,0.7c-0.1,1.1-0.1,2.3,0,3.4c0,0.4,0.5,0.7,1,0.7c1.3,0,2.5,0.8,3.1,2c0.5,1.3,0.2,2.7-0.8,3.7
			c-0.3,0.3-0.4,0.8-0.1,1.1c0.7,0.9,1.5,1.7,2.4,2.4c0.3,0.3,0.8,0.2,1.1-0.1c0.9-1,2.5-1.3,3.7-0.8c1.3,0.5,2.1,1.8,2,3.2
			c0,0.4,0.3,0.8,0.7,0.9c0.6,0.1,1.1,0.1,1.7,0.1c0.5,0,1.1,0,1.6-0.1c0.4,0,0.8-0.4,0.7-0.9c0-1.4,0.8-2.7,2-3.2
			c1.2-0.5,2.8-0.1,3.7,0.8c0.3,0.3,0.8,0.4,1.1,0.1c0.9-0.7,1.7-1.5,2.4-2.4c0.3-0.3,0.2-0.8-0.1-1.1c-1-0.9-1.4-2.4-0.8-3.7
			c0.5-1.2,1.7-2,3-2l0.2,0c0.4,0,0.8-0.3,0.9-0.7C-505.6-225-505.6-226.1-505.7-227.3z M-520.5-220.6c-2.7,0-5-2.2-5-5
			c0-2.7,2.2-5,5-5c2.7,0,5,2.2,5,5C-515.5-222.8-517.7-220.6-520.5-220.6z"/>
	</g>
</g>
<g id="Forma_1_5_">
	<g id="XMLID_143_">
		<path id="XMLID_144_" class="st0" d="M-372.4-353.1c-0.2-1.9-2.5-3.4-4.4-3.4c-6.3,0-11.9-3.7-14.2-9.4c-2.4-5.9-0.8-12.7,3.8-17
			c1.5-1.4,1.7-3.6,0.4-5.2c-3.2-4.1-6.9-7.8-10.9-11c-1.6-1.3-3.9-1.1-5.2,0.4c-4.1,4.5-11.4,6.2-17.1,3.9
			c-5.9-2.5-9.6-8.5-9.3-14.9c0.1-2-1.4-3.8-3.4-4c-5.1-0.6-10.3-0.6-15.4,0c-2,0.2-3.5,1.9-3.4,3.9c0.2,6.4-3.5,12.3-9.4,14.7
			c-5.6,2.3-12.9,0.6-17-3.9c-1.4-1.5-3.6-1.7-5.2-0.4c-4.1,3.2-7.9,6.9-11.1,11c-1.3,1.6-1.1,3.9,0.4,5.2
			c4.8,4.3,6.3,11.2,3.8,17.2c-2.4,5.7-8.2,9.3-14.9,9.3c-2.2-0.1-3.7,1.4-4,3.4c-0.6,5.2-0.6,10.4,0,15.6c0.2,1.9,2.5,3.4,4.5,3.4
			c6-0.2,11.7,3.6,14.1,9.4c2.4,5.9,0.9,12.7-3.8,17c-1.5,1.4-1.7,3.6-0.4,5.2c3.2,4.1,6.9,7.8,10.9,11c1.6,1.3,3.9,1.1,5.2-0.4
			c4.1-4.5,11.5-6.2,17.1-3.9c5.9,2.5,9.7,8.5,9.3,14.9c-0.1,2,1.4,3.8,3.4,4c2.6,0.3,5.3,0.5,7.9,0.5c2.5,0,5-0.1,7.5-0.4
			c2-0.2,3.5-1.9,3.4-3.9c-0.2-6.4,3.5-12.3,9.4-14.7c5.7-2.3,12.9-0.6,17,3.9c1.4,1.5,3.6,1.7,5.2,0.4c4.1-3.2,7.8-6.9,11.1-11
			c1.3-1.6,1.1-3.9-0.4-5.2c-4.8-4.3-6.3-11.2-3.8-17.1c2.3-5.6,8-9.3,14-9.3l0.8,0c2,0.2,3.8-1.4,4-3.4
			C-371.8-342.6-371.8-347.9-372.4-353.1z M-440.5-322.4c-12.6,0-22.9-10.3-22.9-22.9c0-12.6,10.3-22.9,22.9-22.9
			c12.6,0,22.9,10.3,22.9,22.9C-417.6-332.7-427.9-322.4-440.5-322.4z"/>
	</g>
</g>
<path id="XMLID_695_" class="st1" d="M-194.4-261.5c5.8,10.7,9.1,22.9,9.1,35.9c0,27.6-14.9,51.7-37.2,64.6l22.8-66
	c4.3-10.7,5.7-19.2,5.7-26.8C-194-256.6-194.1-259.2-194.4-261.5L-194.4-261.5z M-249.7-260.8c4.5-0.2,8.5-0.7,8.5-0.7
	c4-0.5,3.6-6.4-0.5-6.2c0,0-12.2,0.9-20,0.9c-7.4,0-19.8-1-19.8-1c-4.1-0.2-4.6,5.9-0.5,6.1c0,0,3.7,0.4,7.8,0.6l11.6,31.9
	l-16.4,49.1l-27.2-80.9c4.5-0.2,8.6-0.7,8.6-0.7c4.1-0.5,3.6-6.4-0.5-6.2c0,0-12.1,1-19.9,1c-1.4,0-3-0.1-4.8-0.1
	c13.5-19.9,36.6-33.3,62.7-33.3c19.5,0,37.2,7.4,50.5,19.6c-0.3,0-0.6-0.1-1-0.1c-7.3,0-12.6,6.4-12.6,13.3c0,6.2,3.6,11.4,7.3,17.5
	c2.8,5,6.2,11.4,6.2,20.6c0,6.3-2.5,13.8-5.7,24.1l-7.4,24.8L-249.7-260.8C-249.8-260.9-249.7-260.8-249.7-260.8z M-260.1-150.9
	c-7.3,0-14.4-1.1-21.1-3l22.4-65.2l23,63c0.2,0.4,0.3,0.7,0.5,1C-243-152.4-251.3-150.9-260.1-150.9L-260.1-150.9z M-334.8-225.6
	c0-10.8,2.3-21.1,6.5-30.4l35.7,97.7C-317.6-170.4-334.8-196-334.8-225.6L-334.8-225.6z M-260.1-308.8c-45.8,0-83.2,37.3-83.2,83.2
	s37.3,83.2,83.2,83.2s83.2-37.3,83.2-83.2S-214.2-308.8-260.1-308.8z"/>
<g id="Forma_1_1_">
	<g id="XMLID_136_">
		<path id="XMLID_137_" class="st2" d="M-84-245.3c-0.6-5-6.4-8.7-11.4-8.7c-16.2,0-30.6-9.5-36.6-24.3c-6.2-15.1-2.2-32.7,9.9-43.8
			c3.8-3.5,4.3-9.3,1.1-13.4c-8.3-10.5-17.7-20.1-28-28.3c-4-3.2-9.9-2.8-13.4,1.1c-10.5,11.7-29.5,16-44.1,9.9
			c-15.2-6.4-24.8-21.9-23.9-38.4c0.3-5.2-3.5-9.7-8.7-10.3c-13.2-1.5-26.5-1.6-39.8-0.1c-5.1,0.6-8.9,5-8.8,10.1
			c0.6,16.4-9.1,31.6-24.2,37.8c-14.5,5.9-33.3,1.6-43.8-10c-3.5-3.8-9.3-4.3-13.3-1.1c-10.6,8.3-20.2,17.9-28.6,28.3
			c-3.3,4.1-2.8,10,1.1,13.5c12.3,11.2,16.3,28.9,9.9,44.2c-6.1,14.6-21.2,23.9-38.5,23.9c-5.6-0.2-9.6,3.6-10.2,8.7
			c-1.6,13.3-1.6,26.9-0.1,40.3c0.6,5,6.5,8.7,11.6,8.7c15.4-0.4,30.2,9.2,36.4,24.3c6.2,15.1,2.2,32.7-9.9,43.8
			c-3.8,3.5-4.3,9.3-1.1,13.3c8.2,10.5,17.7,20,28,28.3c4.1,3.3,10,2.8,13.5-1.1c10.6-11.7,29.5-16.1,44.1-9.9
			c15.3,6.4,24.9,21.8,23.9,38.4c-0.3,5.2,3.5,9.7,8.7,10.3c6.8,0.8,13.6,1.2,20.4,1.2c6.5,0,12.9-0.4,19.4-1.1
			c5.1-0.6,8.9-5,8.8-10.1c-0.6-16.4,9.1-31.6,24.2-37.8c14.6-6,33.3-1.6,43.8,10c3.5,3.8,9.3,4.3,13.4,1.1
			c10.6-8.3,20.2-17.8,28.6-28.3c3.3-4.1,2.8-10-1.1-13.5c-12.3-11.2-16.3-28.9-9.9-44.2c6-14.4,20.6-24,36.2-24l2.2,0.1
			c5.1,0.4,9.7-3.5,10.4-8.7C-82.6-218.3-82.5-231.9-84-245.3z M-259.5-113.7c-32.5,0-112.4-78.9-112.4-111.5
			c0-32.6,79.9-112.3,112.4-112.3c32.5,0,111.4,79.7,111.4,112.3C-148.2-192.7-227-113.7-259.5-113.7z"/>
	</g>
</g>
<path id="XMLID_708_" class="st1" d="M-260.1-337.5c-61.8,0-111.9,50.1-111.9,111.9s50.1,111.9,111.9,111.9s111.9-50.1,111.9-111.9
	S-198.3-337.5-260.1-337.5z M-260.1-134c-50.6,0-91.6-41-91.6-91.6s41-91.6,91.6-91.6s91.6,41,91.6,91.6S-209.5-134-260.1-134z"/>
<g id="XMLID_83_">
	<g id="XMLID_786_">
		<rect id="XMLID_785_" x="1.1" y="338.2" class="st3" width="29.1" height="11.4"/>
		<rect id="XMLID_787_" x="1.1" y="321.4" class="st3" width="29.1" height="11.4"/>
		<rect id="XMLID_792_" x="1.1" y="305.2" class="st3" width="29.1" height="11.4"/>
		<rect id="XMLID_788_" x="1.1" y="288.5" class="st3" width="29.1" height="11.4"/>
		<rect id="XMLID_805_" x="1.1" y="271.3" class="st3" width="29.1" height="11.4"/>
		<rect id="XMLID_804_" x="1.1" y="254.6" class="st3" width="29.1" height="11.4"/>
		<rect id="XMLID_803_" x="1.1" y="238.3" class="st3" width="29.1" height="11.4"/>
		<rect id="XMLID_800_" x="1.1" y="221.6" class="st3" width="29.1" height="11.4"/>
		<rect id="XMLID_833_" x="35.4" y="338.2" class="st4" width="29.1" height="11.4"/>
		<rect id="XMLID_832_" x="35.4" y="321.4" class="st4" width="29.1" height="11.4"/>
		<rect id="XMLID_831_" x="35.4" y="305.2" class="st4" width="29.1" height="11.4"/>
		<rect id="XMLID_830_" x="35.4" y="288.5" class="st4" width="29.1" height="11.4"/>
		<rect id="XMLID_845_" x="69.9" y="338.2" class="st1" width="29.1" height="11.4"/>
		<rect id="XMLID_844_" x="69.9" y="321.4" class="st1" width="29.1" height="11.4"/>
		<rect id="XMLID_847_" x="105" y="338.2" class="st5" width="29.1" height="11.4"/>
		<rect id="XMLID_846_" x="105" y="321.4" class="st5" width="29.1" height="11.4"/>
		<rect id="XMLID_843_" x="69.9" y="305.2" class="st1" width="29.1" height="11.4"/>
		<rect id="XMLID_842_" x="69.9" y="288.5" class="st1" width="29.1" height="11.4"/>
		<rect id="XMLID_841_" x="69.9" y="271.3" class="st1" width="29.1" height="11.4"/>
		<rect id="XMLID_840_" x="69.9" y="254.6" class="st1" width="29.1" height="11.4"/>
	</g>
	<g id="Forma_1_10_">
		<g id="XMLID_147_">
			<path id="XMLID_152_" class="st0" d="M397.9,288.4c-0.2-1.8-2.3-3.2-4.2-3.2c-6,0-11.3-3.5-13.5-9c-2.3-5.6-0.8-12.1,3.7-16.2
				c1.4-1.3,1.6-3.4,0.4-4.9c-3.1-3.9-6.6-7.4-10.4-10.5c-1.5-1.2-3.7-1-5,0.4c-3.9,4.3-10.9,5.9-16.3,3.7
				c-5.6-2.4-9.2-8.1-8.8-14.2c0.1-1.9-1.3-3.6-3.2-3.8c-4.9-0.6-9.8-0.6-14.7,0c-1.9,0.2-3.3,1.8-3.2,3.7c0.2,6.1-3.4,11.7-9,14
				c-5.3,2.2-12.3,0.6-16.2-3.7c-1.3-1.4-3.4-1.6-4.9-0.4c-3.9,3.1-7.5,6.6-10.6,10.5c-1.2,1.5-1,3.7,0.4,5c4.6,4.1,6,10.7,3.7,16.3
				c-2.3,5.4-7.8,8.8-14.2,8.8c-2.1-0.1-3.5,1.3-3.8,3.2c-0.6,4.9-0.6,9.9,0,14.9c0.2,1.8,2.4,3.2,4.3,3.2c5.7-0.1,11.2,3.4,13.5,9
				c2.3,5.6,0.8,12.1-3.7,16.2c-1.4,1.3-1.6,3.4-0.4,4.9c3,3.9,6.5,7.4,10.3,10.5c1.5,1.2,3.7,1,5-0.4c3.9-4.3,10.9-5.9,16.3-3.7
				c5.6,2.4,9.2,8.1,8.8,14.2c-0.1,1.9,1.3,3.6,3.2,3.8c2.5,0.3,5,0.4,7.5,0.4c2.4,0,4.8-0.1,7.2-0.4c1.9-0.2,3.3-1.8,3.2-3.7
				c-0.2-6.1,3.4-11.7,8.9-14c5.4-2.2,12.3-0.6,16.2,3.7c1.3,1.4,3.4,1.6,4.9,0.4c3.9-3.1,7.5-6.6,10.6-10.5c1.2-1.5,1-3.7-0.4-5
				c-4.6-4.1-6-10.7-3.7-16.3c2.2-5.3,7.6-8.9,13.4-8.9l0.8,0c1.9,0.2,3.6-1.3,3.8-3.2C398.4,298.4,398.4,293.3,397.9,288.4z
				 M333,317.6c-12,0-21.8-9.8-21.8-21.8c0-12,9.8-21.8,21.8-21.8c12,0,21.8,9.8,21.8,21.8C354.8,307.8,345,317.6,333,317.6z"/>
		</g>
	</g>
	<g id="Forma_1_9_">
		<g id="XMLID_134_">
			<path id="XMLID_135_" class="st0" d="M422.1,161.9c-0.1-1.2-1.6-2.2-2.8-2.2c-4,0-7.6-2.4-9-6c-1.5-3.7-0.5-8.1,2.4-10.8
				c0.9-0.9,1.1-2.3,0.3-3.3c-2-2.6-4.4-5-6.9-7c-1-0.8-2.5-0.7-3.3,0.3c-2.6,2.9-7.3,4-10.9,2.4c-3.8-1.6-6.1-5.4-5.9-9.5
				c0.1-1.3-0.9-2.4-2.1-2.6c-3.3-0.4-6.6-0.4-9.8,0c-1.3,0.1-2.2,1.2-2.2,2.5c0.1,4.1-2.3,7.8-6,9.3c-3.6,1.5-8.2,0.4-10.8-2.5
				c-0.9-0.9-2.3-1.1-3.3-0.3c-2.6,2.1-5,4.4-7.1,7c-0.8,1-0.7,2.5,0.3,3.3c3,2.8,4,7.1,2.4,10.9c-1.5,3.6-5.2,5.9-9.5,5.9
				c-1.4,0-2.4,0.9-2.5,2.1c-0.4,3.3-0.4,6.6,0,9.9c0.1,1.2,1.6,2.1,2.9,2.1c3.8-0.1,7.5,2.3,9,6c1.5,3.7,0.5,8.1-2.4,10.8
				c-0.9,0.9-1.1,2.3-0.3,3.3c2,2.6,4.4,4.9,6.9,7c1,0.8,2.5,0.7,3.3-0.3c2.6-2.9,7.3-4,10.9-2.5c3.8,1.6,6.1,5.4,5.9,9.5
				c-0.1,1.3,0.9,2.4,2.1,2.6c1.7,0.2,3.3,0.3,5,0.3c1.6,0,3.2-0.1,4.8-0.3c1.3-0.1,2.2-1.2,2.2-2.5c-0.1-4.1,2.3-7.8,6-9.3
				c3.6-1.5,8.2-0.4,10.8,2.5c0.9,0.9,2.3,1.1,3.3,0.3c2.6-2.1,5-4.4,7.1-7c0.8-1,0.7-2.5-0.3-3.3c-3-2.8-4-7.1-2.4-10.9
				c1.5-3.5,5.1-5.9,8.9-5.9l0.5,0c1.3,0.1,2.4-0.9,2.6-2.1C422.5,168.6,422.5,165.2,422.1,161.9z M378.8,181.4
				c-8,0-14.6-6.5-14.6-14.6c0-8,6.5-14.6,14.6-14.6c8,0,14.6,6.5,14.6,14.6C393.4,174.9,386.8,181.4,378.8,181.4z"/>
		</g>
	</g>
	<g id="Forma_1_8_">
		<g id="XMLID_129_">
			<path id="XMLID_130_" class="st0" d="M472.3,227.6c-0.1-0.6-0.8-1.1-1.5-1.1c-2.1,0-4-1.2-4.8-3.1c-0.8-2-0.3-4.2,1.3-5.7
				c0.5-0.5,0.6-1.2,0.1-1.7c-1.1-1.4-2.3-2.6-3.6-3.7c-0.5-0.4-1.3-0.4-1.7,0.1c-1.4,1.5-3.8,2.1-5.7,1.3c-2-0.8-3.2-2.8-3.1-5
				c0-0.7-0.5-1.3-1.1-1.3c-1.7-0.2-3.4-0.2-5.2,0c-0.7,0.1-1.2,0.6-1.1,1.3c0.1,2.1-1.2,4.1-3.1,4.9c-1.9,0.8-4.3,0.2-5.7-1.3
				c-0.5-0.5-1.2-0.6-1.7-0.1c-1.4,1.1-2.6,2.3-3.7,3.7c-0.4,0.5-0.4,1.3,0.1,1.7c1.6,1.4,2.1,3.8,1.3,5.7c-0.8,1.9-2.8,3.1-5,3.1
				c-0.7,0-1.2,0.5-1.3,1.1c-0.2,1.7-0.2,3.5,0,5.2c0.1,0.6,0.8,1.1,1.5,1.1c2-0.1,3.9,1.2,4.7,3.1c0.8,2,0.3,4.2-1.3,5.7
				c-0.5,0.5-0.6,1.2-0.1,1.7c1.1,1.4,2.3,2.6,3.6,3.7c0.5,0.4,1.3,0.4,1.7-0.1c1.4-1.5,3.8-2.1,5.7-1.3c2,0.8,3.2,2.8,3.1,5
				c0,0.7,0.5,1.3,1.1,1.3c0.9,0.1,1.8,0.2,2.6,0.2c0.8,0,1.7,0,2.5-0.1c0.7-0.1,1.2-0.6,1.1-1.3c-0.1-2.1,1.2-4.1,3.1-4.9
				c1.9-0.8,4.3-0.2,5.7,1.3c0.5,0.5,1.2,0.6,1.7,0.1c1.4-1.1,2.6-2.3,3.7-3.7c0.4-0.5,0.4-1.3-0.1-1.7c-1.6-1.4-2.1-3.8-1.3-5.7
				c0.8-1.9,2.7-3.1,4.7-3.1l0.3,0c0.7,0.1,1.3-0.5,1.3-1.1C472.5,231.1,472.5,229.3,472.3,227.6z M449.5,237.9
				c-4.2,0-7.7-3.4-7.7-7.7c0-4.2,3.4-7.7,7.7-7.7c4.2,0,7.7,3.4,7.7,7.7C457.1,234.4,453.7,237.9,449.5,237.9z"/>
		</g>
	</g>
	<g id="XMLID_738_">
		<circle id="XMLID_701_" class="st6" cx="62" cy="88.6" r="44.1"/>
		<circle id="XMLID_718_" class="st6" cx="106.1" cy="50.9" r="48.6"/>
		<ellipse id="XMLID_719_" class="st6" cx="110.9" cy="91.9" rx="89.8" ry="34.5"/>
		<circle id="XMLID_720_" class="st6" cx="164.9" cy="89.7" r="41.5"/>
	</g>
	<path id="XMLID_14_" class="st1" d="M247.7,188.7c4.4,8.1,7,17.5,7,27.4c0,21.1-11.4,39.5-28.4,49.4l17.4-50.4
		c3.3-8.1,4.3-14.7,4.3-20.5C248.1,192.4,248,190.4,247.7,188.7L247.7,188.7z M205.5,189.2c3.4-0.2,6.5-0.6,6.5-0.6
		c3.1-0.4,2.7-4.9-0.4-4.8c0,0-9.3,0.7-15.2,0.7c-5.6,0-15.1-0.8-15.1-0.8c-3.1-0.2-3.5,4.5-0.4,4.7c0,0,2.9,0.3,6,0.5l8.9,24.4
		l-12.5,37.5l-20.8-61.8c3.4-0.2,6.5-0.5,6.5-0.5c3.1-0.4,2.7-4.9-0.3-4.7c0,0-9.2,0.7-15.2,0.7c-1.1,0-2.3,0-3.7-0.1
		c10.3-15.2,27.9-25.5,47.9-25.5c14.9,0,28.4,5.7,38.6,15c-0.2,0-0.5,0-0.7,0c-5.6,0-9.6,4.9-9.6,10.1c0,4.7,2.7,8.7,5.6,13.4
		c2.2,3.8,4.7,8.7,4.7,15.8c0,4.8-1.9,10.6-4.3,18.4l-5.7,19L205.5,189.2C205.5,189.2,205.5,189.2,205.5,189.2z M197.6,273.2
		c-5.6,0-11-0.8-16.1-2.3l17.1-49.8l17.5,48.1c0.1,0.3,0.3,0.5,0.4,0.8C210.7,272,204.3,273.2,197.6,273.2L197.6,273.2z
		 M140.5,216.1c0-8.3,1.8-16.1,5-23.2l27.2,74.6C153.7,258.2,140.5,238.7,140.5,216.1L140.5,216.1z M197.6,152.6
		c-35,0-63.5,28.5-63.5,63.5s28.5,63.5,63.5,63.5s63.5-28.5,63.5-63.5S232.6,152.6,197.6,152.6z"/>
	<g id="Forma_1_7_">
		<g id="XMLID_124_">
			<path id="XMLID_125_" class="st2" d="M332,201.1c-0.4-3.8-4.9-6.7-8.7-6.7c-12.4,0-23.4-7.3-28-18.5c-4.7-11.5-1.7-25,7.6-33.4
				c2.9-2.7,3.3-7.1,0.8-10.2c-6.3-8.1-13.5-15.3-21.4-21.6c-3.1-2.5-7.6-2.1-10.3,0.8c-8.1,8.9-22.5,12.2-33.7,7.6
				c-11.6-4.9-19-16.7-18.2-29.4c0.2-4-2.7-7.4-6.6-7.9c-10.1-1.2-20.3-1.2-30.4-0.1c-3.9,0.4-6.8,3.8-6.7,7.7
				c0.4,12.5-7,24.1-18.5,28.9c-11,4.5-25.4,1.2-33.4-7.6c-2.7-2.9-7.1-3.3-10.2-0.9c-8.1,6.4-15.5,13.6-21.9,21.6
				c-2.5,3.1-2.1,7.6,0.8,10.3c9.4,8.5,12.4,22.1,7.6,33.7c-4.7,11.1-16.2,18.3-29.4,18.3c-4.3-0.1-7.3,2.7-7.8,6.6
				c-1.2,10.2-1.2,20.5-0.1,30.8c0.4,3.8,5,6.6,8.9,6.6c11.8-0.3,23.1,7,27.8,18.5c4.7,11.5,1.7,25-7.6,33.4
				c-2.9,2.7-3.3,7.1-0.8,10.2c6.3,8,13.5,15.3,21.4,21.6c3.1,2.5,7.6,2.1,10.3-0.8c8.1-8.9,22.5-12.3,33.7-7.6
				c11.7,4.9,19,16.7,18.3,29.4c-0.2,4,2.7,7.4,6.6,7.9c5.2,0.6,10.4,0.9,15.6,0.9c4.9,0,9.9-0.3,14.8-0.8c3.9-0.4,6.8-3.8,6.7-7.7
				c-0.5-12.5,7-24.1,18.5-28.8c11.1-4.5,25.4-1.2,33.5,7.6c2.7,2.9,7.1,3.3,10.2,0.9c8.1-6.3,15.4-13.6,21.9-21.6
				c2.5-3.1,2.1-7.6-0.8-10.3c-9.4-8.5-12.5-22.1-7.6-33.7c4.6-11,15.7-18.3,27.6-18.3l1.7,0c3.9,0.3,7.4-2.7,7.9-6.6
				C333.2,221.7,333.2,211.3,332,201.1z M198,301.5c-24.8,0-85.8-60.3-85.8-85.2c0-24.9,61-85.8,85.8-85.8
				c24.8,0,85.1,60.9,85.1,85.8C283.1,241.2,222.9,301.5,198,301.5z"/>
		</g>
	</g>
	<path id="XMLID_1_" class="st1" d="M197.6,130.6c-47.2,0-85.5,38.3-85.5,85.5s38.3,85.5,85.5,85.5s85.5-38.3,85.5-85.5
		S244.8,130.6,197.6,130.6z M197.6,286c-38.6,0-70-31.3-70-70s31.3-70,70-70s70,31.3,70,70S236.3,286,197.6,286z"/>
</g>
</svg>
